<svg width="266.79" height="230.26" viewBox="45 117 266.79 230.26" xmlns="http://www.w3.org/2000/svg" xmlns:xlink="http://www.w3.org/1999/xlink"><defs><clipPath id="b"><path d="M45 117h333v36H45z"/></clipPath><clipPath id="c"><path d="M55.621 128.41c1.509 0 2.732 3.006 2.732 6.716s-1.223 6.716-2.732 6.716c-1.508 0-2.731-3.007-2.731-6.716 0-3.71 1.223-6.717 2.731-6.717z"/></clipPath><clipPath id="e"><path d="M338.34 129.06a5.94 5.94 0 11-.225 11.878 5.94 5.94 0 01.225-11.878z"/></clipPath><clipPath id="f"><path d="M201 129.06a5.94 5.94 0 11-.225 11.878A5.94 5.94 0 01201 129.06z"/></clipPath><clipPath id="g"><path d="M224.76 129.06a5.94 5.94 0 11-.225 11.878 5.94 5.94 0 01.225-11.878z"/></clipPath><clipPath id="h"><path d="M248.52 129.06a5.94 5.94 0 11-.225 11.878 5.94 5.94 0 01.225-11.878z"/></clipPath><clipPath id="i"><path d="M118.31 129.06a5.94 5.94 0 11-.225 11.878 5.94 5.94 0 01.225-11.878z"/></clipPath><clipPath id="j"><path d="M142.07 129.06a5.94 5.94 0 11-.225 11.878 5.94 5.94 0 01.225-11.878z"/></clipPath><clipPath id="k"><path d="M165.83 129.06a5.94 5.94 0 11-.225 11.878 5.94 5.94 0 01.225-11.878z"/></clipPath><linearGradient id="a" x1="15.959" x2="344.31" y1="-13.014" y2="15.333" gradientTransform="matrix(1 0 0 -1 0 61)" gradientUnits="userSpaceOnUse"><stop stop-color="#c757bc" offset="0"/><stop stop-color="#ff8901" offset="1"/></linearGradient><linearGradient id="d" x1="15.959" x2="344.31" y1="-13.014" y2="15.333" gradientTransform="matrix(1 0 0 -1 0 61)" gradientUnits="userSpaceOnUse" xlink:href="#a"/></defs><g transform="rotate(220 212.59 189.61)" clip-path="url(#b)" fill="none"><path d="M353.83 122.89h-55.439c-1.046-1.248-2.235-1.907-3.447-1.91-1.197 0-2.374.64-3.413 1.86l.051.05h-106.3c-1.046-1.248-2.236-1.907-3.447-1.91-1.192.006-2.362.647-3.396 1.86l.034.05H81.011c-1.046-1.248-2.236-1.907-3.447-1.91-1.192.006-2.362.647-3.396 1.86l.033.05H55.344c-3.29.198-5.884 5.795-5.805 12.526.08 6.73 2.802 12.067 6.093 11.941.391 0 .782-.08 1.166-.236h17.403l-.033.05c1.034 1.207 2.205 1.842 3.396 1.842 1.21.003 2.4-.65 3.447-1.892h97.462l-.034.05c1.034 1.207 2.205 1.842 3.396 1.842 1.21.003 2.4-.65 3.447-1.892h106.3l-.05.05c1.039 1.213 2.216 1.848 3.412 1.842 1.211.003 2.4-.65 3.447-1.892h55.44l-.034.05c1.034 1.207 2.205 1.842 3.396 1.842 1.21.003 2.4-.65 3.447-1.892h5.914c.274.078.55.118.828.118 3.305 0 5.985-5.481 5.985-12.242s-2.68-12.242-5.985-12.242a3.043 3.043 0 00-.828.135h-5.914c-1.046-1.248-2.236-1.907-3.447-1.91-1.192.006-2.363.647-3.396 1.86z" fill="#f3f3f3"/><path d="M353.83 122.89h-55.439c-1.046-1.248-2.235-1.907-3.447-1.91-1.197 0-2.374.64-3.413 1.86l.051.05h-106.3c-1.046-1.248-2.236-1.907-3.447-1.91-1.192.006-2.362.647-3.396 1.86l.034.05H81.011c-1.046-1.248-2.236-1.907-3.447-1.91-1.192.006-2.362.647-3.396 1.86l.033.05H55.344c-3.29.198-5.884 5.795-5.805 12.526.08 6.73 2.802 12.067 6.093 11.941.391 0 .782-.08 1.166-.236h17.403l-.033.05c1.034 1.207 2.205 1.842 3.396 1.842 1.21.003 2.4-.65 3.447-1.892h97.462l-.034.05c1.034 1.207 2.205 1.842 3.396 1.842 1.21.003 2.4-.65 3.447-1.892h106.3l-.05.05c1.039 1.213 2.216 1.848 3.412 1.842 1.211.003 2.4-.65 3.447-1.892h55.44l-.034.05c1.034 1.207 2.205 1.842 3.396 1.842 1.21.003 2.4-.65 3.447-1.892h5.914c.274.078.55.118.828.118 3.305 0 5.985-5.481 5.985-12.242s-2.68-12.242-5.985-12.242a3.043 3.043 0 00-.828.135h-5.914c-1.046-1.248-2.236-1.907-3.447-1.91-1.192.006-2.363.647-3.396 1.86z" stroke="#000" stroke-linecap="round" stroke-linejoin="round" stroke-width="3"/><g fill="#00a9ff"><path d="M367.37 122.77c-.277 0-.553.04-.828.118H55.352v24.23h311.19c.275.08.551.119.828.119 2.172.11 4.202-2.198 5.304-6.028 1.101-3.83 1.101-8.58 0-12.41-1.102-3.83-3.132-6.138-5.304-6.029z"/><path d="M367.37 122.77c-.277 0-.553.04-.828.118H55.352v24.23h311.19c.275.08.551.119.828.119 2.172.11 4.202-2.198 5.304-6.028 1.101-3.83 1.101-8.58 0-12.41-1.102-3.83-3.132-6.138-5.304-6.029z" stroke="#000" stroke-linecap="round" stroke-linejoin="round" stroke-width="1.5"/></g><g fill="#00a9ff"><path d="M55.63 122.88c3.246.163 5.835 5.592 5.835 12.233s-2.59 12.07-5.835 12.234c-2.172.109-4.202-2.199-5.304-6.029-1.101-3.83-1.101-8.58 0-12.41 1.102-3.83 3.132-6.137 5.304-6.028z"/><path d="M55.63 122.88c3.246.163 5.835 5.592 5.835 12.233s-2.59 12.07-5.835 12.234c-2.172.109-4.202-2.199-5.304-6.029-1.101-3.83-1.101-8.58 0-12.41 1.102-3.83 3.132-6.137 5.304-6.028z" stroke="#000" stroke-linecap="round" stroke-linejoin="round" stroke-width="1.5"/></g><path d="M55.621 128.41c1.509 0 2.732 3.006 2.732 6.716s-1.223 6.716-2.732 6.716c-1.508 0-2.731-3.007-2.731-6.716 0-3.71 1.223-6.717 2.731-6.717z" fill="#e1e1e1"/><path d="M55.621 128.41c1.509 0 2.732 3.006 2.732 6.716s-1.223 6.716-2.732 6.716c-1.508 0-2.731-3.007-2.731-6.716 0-3.71 1.223-6.717 2.731-6.717z" clip-path="url(#c)" stroke="#000" stroke-linecap="round" stroke-linejoin="round" stroke-width="2"/><g fill="url(#d)"><path d="M74.165 147.17c1.034 1.207 2.205 1.842 3.396 1.842 3.728-.162 6.708-6.39 6.708-14.016s-2.98-13.854-6.708-14.016c-1.192.005-2.363.646-3.396 1.859 2.132 2.497 3.448 7.139 3.448 12.165 0 5.027-1.316 9.669-3.448 12.166z"/><path d="M74.165 147.17c1.034 1.207 2.205 1.842 3.396 1.842 3.728-.162 6.708-6.39 6.708-14.016s-2.98-13.854-6.708-14.016c-1.192.005-2.363.646-3.396 1.859 2.132 2.497 3.448 7.139 3.448 12.165 0 5.027-1.316 9.669-3.448 12.166z" stroke="#000" stroke-linecap="round" stroke-linejoin="round" stroke-width="1.5"/><path d="M178.44 147.17c1.034 1.207 2.205 1.842 3.396 1.842 3.728-.162 6.708-6.39 6.708-14.016s-2.98-13.854-6.708-14.016c-1.192.005-2.362.646-3.396 1.859 2.132 2.497 3.448 7.139 3.448 12.165 0 5.027-1.316 9.669-3.448 12.166z"/><path d="M178.44 147.17c1.034 1.207 2.205 1.842 3.396 1.842 3.728-.162 6.708-6.39 6.708-14.016s-2.98-13.854-6.708-14.016c-1.192.005-2.362.646-3.396 1.859 2.132 2.497 3.448 7.139 3.448 12.165 0 5.027-1.316 9.669-3.448 12.166z" stroke="#000" stroke-linecap="round" stroke-linejoin="round" stroke-width="1.5"/><path d="M291.54 147.17c1.034 1.207 2.204 1.842 3.395 1.842 3.728-.162 6.708-6.39 6.708-14.016s-2.98-13.854-6.708-14.016c-1.191.005-2.362.646-3.396 1.859 2.133 2.497 3.448 7.139 3.448 12.165 0 5.027-1.315 9.669-3.448 12.166z"/><path d="M291.54 147.17c1.034 1.207 2.204 1.842 3.395 1.842 3.728-.162 6.708-6.39 6.708-14.016s-2.98-13.854-6.708-14.016c-1.191.005-2.362.646-3.396 1.859 2.133 2.497 3.448 7.139 3.448 12.165 0 5.027-1.315 9.669-3.448 12.166z" stroke="#000" stroke-linecap="round" stroke-linejoin="round" stroke-width="1.5"/><path d="M353.79 147.17c1.035 1.207 2.205 1.842 3.397 1.842 3.727-.162 6.708-6.39 6.708-14.016s-2.98-13.854-6.708-14.016c-1.192.005-2.363.646-3.397 1.859 2.133 2.497 3.448 7.139 3.448 12.165 0 5.027-1.315 9.669-3.448 12.166z"/><path d="M353.79 147.17c1.035 1.207 2.205 1.842 3.397 1.842 3.727-.162 6.708-6.39 6.708-14.016s-2.98-13.854-6.708-14.016c-1.192.005-2.363.646-3.397 1.859 2.133 2.497 3.448 7.139 3.448 12.165 0 5.027-1.315 9.669-3.448 12.166z" stroke="#000" stroke-linecap="round" stroke-linejoin="round" stroke-width="1.5"/></g><path d="M338.34 129.06a5.94 5.94 0 11-.225 11.878 5.94 5.94 0 01.225-11.878z" fill="#e1e1e1"/><path d="M338.34 129.06a5.94 5.94 0 11-.225 11.878 5.94 5.94 0 01.225-11.878z" clip-path="url(#e)" stroke="#000" stroke-linecap="round" stroke-linejoin="round" stroke-width="2"/><path d="M201 129.06a5.94 5.94 0 11-.225 11.878A5.94 5.94 0 01201 129.06z" fill="#e1e1e1"/><path d="M201 129.06a5.94 5.94 0 11-.225 11.878A5.94 5.94 0 01201 129.06z" clip-path="url(#f)" stroke="#000" stroke-linecap="round" stroke-linejoin="round" stroke-width="2"/><path d="M224.76 129.06a5.94 5.94 0 11-.225 11.878 5.94 5.94 0 01.225-11.878z" fill="#e1e1e1"/><path d="M224.76 129.06a5.94 5.94 0 11-.225 11.878 5.94 5.94 0 01.225-11.878z" clip-path="url(#g)" stroke="#000" stroke-linecap="round" stroke-linejoin="round" stroke-width="2"/><path d="M248.52 129.06a5.94 5.94 0 11-.225 11.878 5.94 5.94 0 01.225-11.878z" fill="#e1e1e1"/><path d="M248.52 129.06a5.94 5.94 0 11-.225 11.878 5.94 5.94 0 01.225-11.878z" clip-path="url(#h)" stroke="#000" stroke-linecap="round" stroke-linejoin="round" stroke-width="2"/><path d="M118.31 129.06a5.94 5.94 0 11-.225 11.878 5.94 5.94 0 01.225-11.878z" fill="#e1e1e1"/><path d="M118.31 129.06a5.94 5.94 0 11-.225 11.878 5.94 5.94 0 01.225-11.878z" clip-path="url(#i)" stroke="#000" stroke-linecap="round" stroke-linejoin="round" stroke-width="2"/><path d="M142.07 129.06a5.94 5.94 0 11-.225 11.878 5.94 5.94 0 01.225-11.878z" fill="#e1e1e1"/><path d="M142.07 129.06a5.94 5.94 0 11-.225 11.878 5.94 5.94 0 01.225-11.878z" clip-path="url(#j)" stroke="#000" stroke-linecap="round" stroke-linejoin="round" stroke-width="2"/><path d="M165.83 129.06a5.94 5.94 0 11-.225 11.878 5.94 5.94 0 01.225-11.878z" fill="#e1e1e1"/><path d="M165.83 129.06a5.94 5.94 0 11-.225 11.878 5.94 5.94 0 01.225-11.878z" clip-path="url(#k)" stroke="#000" stroke-linecap="round" stroke-linejoin="round" stroke-width="2"/></g></svg>